<?xml version="1.0" encoding="UTF-8" standalone="no"?>
<!DOCTYPE svg PUBLIC "-//W3C//DTD SVG 1.1//EN"
 "http://www.w3.org/Graphics/SVG/1.1/DTD/svg11.dtd">
<!-- Generated by graphviz version 2.38.0 (20140413.2041)
 -->
<!-- Title: FSM Pages: 1 -->
<svg width="576pt" height="292pt"
 viewBox="0.00 0.00 576.00 292.31" xmlns="http://www.w3.org/2000/svg" xmlns:xlink="http://www.w3.org/1999/xlink">
<g id="graph0" class="graph" transform="scale(0.954951 0.954951) rotate(0) translate(4 302.095)">
<title>FSM</title>
<polygon fill="white" stroke="none" points="-4,4 -4,-302.095 599.172,-302.095 599.172,4 -4,4"/>
<!-- Prologue -->
<g id="node1" class="node"><title>Prologue</title>
<ellipse fill="none" stroke="black" cx="88.1461" cy="-148.547" rx="43.5884" ry="43.5884"/>
<ellipse fill="none" stroke="black" cx="88.1461" cy="-148.547" rx="47.5923" ry="47.5923"/>
<text text-anchor="middle" x="88.1461" y="-144.847" font-family="Times New Roman,serif" font-size="14.00">Prologue</text>
</g>
<!-- ch1 -->
<g id="node3" class="node"><title>ch1</title>
<ellipse fill="none" stroke="black" cx="234.74" cy="-148.547" rx="24.0958" ry="24.0958"/>
<text text-anchor="middle" x="234.74" y="-144.847" font-family="Times New Roman,serif" font-size="14.00">ch1</text>
</g>
<!-- Prologue&#45;&gt;ch1 -->
<g id="edge2" class="edge"><title>Prologue&#45;&gt;ch1</title>
<path fill="none" stroke="black" d="M135.692,-148.547C156.729,-148.547 181.112,-148.547 200.299,-148.547"/>
<polygon fill="black" stroke="black" points="200.371,-152.047 210.371,-148.547 200.37,-145.047 200.371,-152.047"/>
<text text-anchor="middle" x="173.192" y="-152.347" font-family="Times New Roman,serif" font-size="14.00">[&#39;next&#39;]</text>
</g>
<!-- qi -->
<g id="node2" class="node"><title>qi</title>
<ellipse fill="black" stroke="black" cx="1.8" cy="-148.547" rx="1.8" ry="1.8"/>
</g>
<!-- qi&#45;&gt;Prologue -->
<g id="edge1" class="edge"><title>qi&#45;&gt;Prologue</title>
<path fill="none" stroke="black" d="M3.74725,-148.547C6.92018,-148.547 17.6982,-148.547 30.5011,-148.547"/>
<polygon fill="black" stroke="black" points="30.594,-152.047 40.5939,-148.547 30.5939,-145.047 30.594,-152.047"/>
</g>
<!-- ch2_beginnig -->
<g id="node4" class="node"><title>ch2_beginnig</title>
<ellipse fill="none" stroke="black" cx="392.933" cy="-148.547" rx="59.2899" ry="59.2899"/>
<text text-anchor="middle" x="392.933" y="-144.847" font-family="Times New Roman,serif" font-size="14.00">ch2_beginnig</text>
</g>
<!-- ch1&#45;&gt;ch2_beginnig -->
<g id="edge3" class="edge"><title>ch1&#45;&gt;ch2_beginnig</title>
<path fill="none" stroke="black" d="M259.124,-148.547C276.248,-148.547 300.426,-148.547 323.468,-148.547"/>
<polygon fill="black" stroke="black" points="323.596,-152.047 333.596,-148.547 323.596,-145.047 323.596,-152.047"/>
<text text-anchor="middle" x="296.288" y="-152.347" font-family="Times New Roman,serif" font-size="14.00">[&#39;next&#39;]</text>
</g>
<!-- path1 -->
<g id="node5" class="node"><title>path1</title>
<ellipse fill="none" stroke="black" cx="564.625" cy="-267.547" rx="30.5947" ry="30.5947"/>
<text text-anchor="middle" x="564.625" y="-263.847" font-family="Times New Roman,serif" font-size="14.00">path1</text>
</g>
<!-- ch2_beginnig&#45;&gt;path1 -->
<g id="edge4" class="edge"><title>ch2_beginnig&#45;&gt;path1</title>
<path fill="none" stroke="black" d="M442.106,-182.33C470.329,-202.122 505.257,-226.616 530.413,-244.257"/>
<polygon fill="black" stroke="black" points="528.679,-247.316 538.876,-250.192 532.698,-241.585 528.679,-247.316"/>
<text text-anchor="middle" x="493.078" y="-235.347" font-family="Times New Roman,serif" font-size="14.00">[&#39;next&#39;]</text>
</g>
<!-- path2 -->
<g id="node6" class="node"><title>path2</title>
<ellipse fill="none" stroke="black" cx="564.625" cy="-188.547" rx="30.5947" ry="30.5947"/>
<text text-anchor="middle" x="564.625" y="-184.847" font-family="Times New Roman,serif" font-size="14.00">path2</text>
</g>
<!-- ch2_beginnig&#45;&gt;path2 -->
<g id="edge5" class="edge"><title>ch2_beginnig&#45;&gt;path2</title>
<path fill="none" stroke="black" d="M450.91,-161.978C475.181,-167.699 502.875,-174.227 524.738,-179.381"/>
<polygon fill="black" stroke="black" points="524.113,-182.829 534.65,-181.717 525.719,-176.016 524.113,-182.829"/>
<text text-anchor="middle" x="493.078" y="-180.347" font-family="Times New Roman,serif" font-size="14.00">[&#39;next2&#39;]</text>
</g>
<!-- path3 -->
<g id="node7" class="node"><title>path3</title>
<ellipse fill="none" stroke="black" cx="564.625" cy="-109.547" rx="30.5947" ry="30.5947"/>
<text text-anchor="middle" x="564.625" y="-105.847" font-family="Times New Roman,serif" font-size="14.00">path3</text>
</g>
<!-- ch2_beginnig&#45;&gt;path3 -->
<g id="edge6" class="edge"><title>ch2_beginnig&#45;&gt;path3</title>
<path fill="none" stroke="black" d="M450.91,-135.452C475.181,-129.874 502.875,-123.509 524.738,-118.485"/>
<polygon fill="black" stroke="black" points="525.688,-121.858 534.65,-116.207 524.12,-115.036 525.688,-121.858"/>
<text text-anchor="middle" x="493.078" y="-134.347" font-family="Times New Roman,serif" font-size="14.00">[&#39;next3&#39;]</text>
</g>
<!-- path4 -->
<g id="node8" class="node"><title>path4</title>
<ellipse fill="none" stroke="black" cx="564.625" cy="-30.5473" rx="30.5947" ry="30.5947"/>
<text text-anchor="middle" x="564.625" y="-26.8473" font-family="Times New Roman,serif" font-size="14.00">path4</text>
</g>
<!-- ch2_beginnig&#45;&gt;path4 -->
<g id="edge7" class="edge"><title>ch2_beginnig&#45;&gt;path4</title>
<path fill="none" stroke="black" d="M442.106,-115.049C470.329,-95.4228 505.257,-71.135 530.413,-53.6421"/>
<polygon fill="black" stroke="black" points="532.664,-56.3395 538.876,-47.7568 528.668,-50.5924 532.664,-56.3395"/>
<text text-anchor="middle" x="493.078" y="-97.3473" font-family="Times New Roman,serif" font-size="14.00">[&#39;next5&#39;]</text>
</g>
</g>
</svg>
